{
 "cells": [
  {
   "cell_type": "markdown",
   "id": "9496f57f",
   "metadata": {},
   "source": [
    "# Dynamic optimization"
   ]
  },
  {
   "cell_type": "markdown",
   "id": "d8b6d588",
   "metadata": {},
   "source": [
    "## Init"
   ]
  },
  {
   "cell_type": "code",
   "execution_count": 1,
   "id": "10b0edb6",
   "metadata": {},
   "outputs": [
    {
     "name": "stdout",
     "output_type": "stream",
     "text": [
      "init done\n"
     ]
    }
   ],
   "source": [
    "# imports\n",
    "import os #to access system folders\n",
    "import sys\n",
    "import subprocess #to access ffmpeg in the system\n",
    "import shutil #to remove directories\n",
    "import numpy as np #easy vector operations\n",
    "import math #for operation with infinite\n",
    "import itertools\n",
    "import copy #dict shadow copies\n",
    "from scipy.optimize import curve_fit #fittin of the curve\n",
    "import json #to handle json files\n",
    "import matplotlib.pyplot as pl #to display plots\n",
    "import tkinter as tk #to import file\n",
    "from tkinter import filedialog #to open import dialog\n",
    "\n",
    "#constants\n",
    "PARAM_AVC = {\"crfs\": 52, \"opr_range\": [10,40], \"lib\": \"libx264\", \"container\": \"mp4\", \"add_param\": \"\"}\n",
    "PARAM_HEVC = {\"crfs\": 52, \"opr_range\": [15,46], \"lib\": \"libx265\", \"container\": \"mp4\", \"add_param\": \"\"}\n",
    "PARAM_VP9 = {\"crfs\": 64, \"opr_range\": [15,51], \"lib\": \"libvpx-vp9\", \"container\": \"webm\", \"add_param\": \"-b:v 0\"}\n",
    "num_pts = 30 #more for more precision\n",
    "\n",
    "#variables - CUSTOM\n",
    "codec = \"avc\" #values: \"avc\", \"hevc\", \"vp9\", !!not implemented: \"av1\", \"vvc\"\n",
    "raw_width = 480\n",
    "raw_height = 270\n",
    "raw_fps = 29.97\n",
    "target_list = {\"dist\": [89], \"rate\": [500000]}\n",
    "dist_metric = \"vmaf\" #values \"vmaf\",\"psnr\" !!not implemented: \"ssim\", \"mssim\"\n",
    "opt_tech = \"bf\" #bf = brute force, lg = lagrange, cf = curve fitting\n",
    "\n",
    "#input file\n",
    "root = tk.Tk()\n",
    "root.withdraw()\n",
    "source_path = os.path.relpath(filedialog.askopenfilename())\n",
    "source_name = os.path.basename(source_path).split('.')[0]\n",
    "REF_PATH = \"test_vids/tempRAW_refs/\" #raw files for each shot\n",
    "[os.remove(REF_PATH+f) for f in os.listdir(REF_PATH)] #clean temp_refs folder\n",
    "DIST_PATH = \"test_vids/temp_encoded/\" #encoded files for each shot\n",
    "[shutil.rmtree(DIST_PATH+f) for f in os.listdir(DIST_PATH)] #clean temp_encoded folder\n",
    "\n",
    "#assessment files path\n",
    "tm_file = \"rd_results/template.json\"\n",
    "rd_file = \"rd_results/\" + source_name + \".json\"\n",
    "if not os.path.isfile(rd_file): #if file does not exists create it\n",
    "    with open(rd_file, 'w') as f:\n",
    "        pass\n",
    "VMAF_LOGS = \"rd_results/vmaf_logs.json\"\n",
    "\n",
    "#shot detection\n",
    "TIME_LOGS = \"shot_detection.log\"\n",
    "shot_th = 0.25 #change shot threshold\n",
    "num_scenes = 0\n",
    "duration = 0.0\n",
    "\n",
    "#output file\n",
    "OUT_LIST = \"shot_list.txt\"\n",
    "OUT_PATH = \"test_vids/OPT_vids/\"\n",
    "\n",
    "#all computed points, by row: crf, bitrate and distortion metric\n",
    "str_matrix = {\"crf\": None, \"rate\": None, \"dist\": None}\n",
    "\n",
    "print(\"init done\")"
   ]
  },
  {
   "cell_type": "markdown",
   "id": "c1949a36",
   "metadata": {},
   "source": [
    "## Shot change detection"
   ]
  },
  {
   "cell_type": "code",
   "execution_count": 2,
   "id": "b58d49c1",
   "metadata": {},
   "outputs": [],
   "source": [
    "#an empty json structure is generated to be filled and to store computed values\n",
    "def init_res_matrix(x):\n",
    "    str_matrix[\"crf\"] = np.zeros(x, dtype=int).tolist()\n",
    "    str_matrix[\"rate\"] = np.zeros(x, dtype=int).tolist()\n",
    "    str_matrix[\"dist\"] = np.zeros(x).tolist()\n",
    "    \n",
    "#detect shot changes in the scene and split it into shots\n",
    "def shot_change_detection(p):\n",
    "    start_t = 0.0\n",
    "    end_t = 0.0\n",
    "    global duration\n",
    "    #return when the shot changes\n",
    "    det = f\"ffmpeg -i {p} -filter_complex:v \\\"select='gt(scene,{shot_th})', \\\n",
    "        metadata=print:file={TIME_LOGS}\\\" -f null -\"\n",
    "    subprocess.call(det, shell=True)\n",
    "    #get the total duration for the last cut\n",
    "    idu = f\"ffprobe -v error -select_streams v:0 -show_entries format:stream -print_format json {p}\"\n",
    "    dta = json.loads(subprocess.run(idu.split(), stdout=subprocess.PIPE, stderr=subprocess.STDOUT).stdout)\n",
    "    duration = float(dta['format']['duration'])\n",
    "    \n",
    "    with open(\"shot_detection.log\", 'r') as r:\n",
    "        tm_log = r.read().splitlines()[::2]\n",
    "    tm_log.append(\"end pts_time:\" + str(duration))\n",
    "    n = len(tm_log)\n",
    "    for i,l in enumerate(tm_log): #for each cut\n",
    "        #create a folder for each scene\n",
    "        new_dir = str(i)\n",
    "        new_path = os.path.join(DIST_PATH, new_dir)\n",
    "        os.mkdir(new_path)\n",
    "        \n",
    "        #cut the video\n",
    "        end_t = l.split(\"pts_time:\",1)[1]\n",
    "        cut = f\"ffmpeg -ss {start_t} -to {end_t} -i {p} \\\n",
    "            -pix_fmt yuv420p {REF_PATH}scene{str(i).zfill(7)}.yuv\"\n",
    "        subprocess.call(cut, shell=True)\n",
    "        start_t = end_t\n",
    "    return n"
   ]
  },
  {
   "cell_type": "code",
   "execution_count": 3,
   "id": "25b023a2",
   "metadata": {},
   "outputs": [
    {
     "name": "stdout",
     "output_type": "stream",
     "text": [
      "y4m input\n"
     ]
    },
    {
     "name": "stderr",
     "output_type": "stream",
     "text": [
      "ffmpeg version N-106635-g83e1a1de88 Copyright (c) 2000-2022 the FFmpeg developers\n",
      "  built with gcc 9 (Ubuntu 9.4.0-1ubuntu1~20.04.1)\n",
      "  configuration: --prefix=/home/ubuntu/ffmpeg_build --pkg-config-flags=--static --extra-cflags=-I/home/ubuntu/ffmpeg_build/include --extra-ldflags=-L/home/ubuntu/ffmpeg_build/lib --extra-libs='-lpthread -lm' --ld=g++ --bindir=/home/ubuntu/bin --enable-gpl --enable-gnutls --enable-libaom --enable-libass --enable-libfdk-aac --enable-libfreetype --enable-libmp3lame --enable-libopus --enable-libsvtav1 --enable-libdav1d --enable-libvorbis --enable-libvpx --enable-libx264 --enable-libx265 --enable-libvmaf --enable-version3 --enable-nonfree\n",
      "  libavutil      57. 24.101 / 57. 24.101\n",
      "  libavcodec     59. 26.100 / 59. 26.100\n",
      "  libavformat    59. 22.100 / 59. 22.100\n",
      "  libavdevice    59.  6.100 / 59.  6.100\n",
      "  libavfilter     8. 33.100 /  8. 33.100\n",
      "  libswscale      6.  6.100 /  6.  6.100\n",
      "  libswresample   4.  6.100 /  4.  6.100\n",
      "  libpostproc    56.  5.100 / 56.  5.100\n",
      "Input #0, yuv4mpegpipe, from 'test_vids/srcRAW_SD/rush_field_cuts_SDp.y4m':\n",
      "  Duration: 00:00:19.02, start: 0.000000, bitrate: 62147 kb/s\n",
      "  Stream #0:0: Video: rawvideo (Y42B / 0x42323459), yuv422p(tv, progressive), 480x270, SAR 1:1 DAR 16:9, 29.97 fps, 29.97 tbr, 29.97 tbn\n",
      "Stream mapping:\n",
      "  Stream #0:0 (rawvideo) -> select:default\n",
      "  metadata:default -> Stream #0:0 (wrapped_avframe)\n",
      "Press [q] to stop, [?] for help\n",
      "Output #0, null, to 'pipe:':\n",
      "  Metadata:\n",
      "    encoder         : Lavf59.22.100\n",
      "  Stream #0:0: Video: wrapped_avframe, yuv422p(tv, progressive), 480x270 [SAR 1:1 DAR 16:9], q=2-31, 200 kb/s, 29.97 fps, 29.97 tbn\n",
      "    Metadata:\n",
      "      encoder         : Lavc59.26.100 wrapped_avframe\n",
      "frame=    3 fps=0.0 q=-0.0 Lsize=N/A time=00:00:16.04 bitrate=N/A speed= 762x    \n",
      "video:1kB audio:0kB subtitle:0kB other streams:0kB global headers:0kB muxing overhead: unknown\n",
      "ffmpeg version N-106635-g83e1a1de88 Copyright (c) 2000-2022 the FFmpeg developers\n",
      "  built with gcc 9 (Ubuntu 9.4.0-1ubuntu1~20.04.1)\n",
      "  configuration: --prefix=/home/ubuntu/ffmpeg_build --pkg-config-flags=--static --extra-cflags=-I/home/ubuntu/ffmpeg_build/include --extra-ldflags=-L/home/ubuntu/ffmpeg_build/lib --extra-libs='-lpthread -lm' --ld=g++ --bindir=/home/ubuntu/bin --enable-gpl --enable-gnutls --enable-libaom --enable-libass --enable-libfdk-aac --enable-libfreetype --enable-libmp3lame --enable-libopus --enable-libsvtav1 --enable-libdav1d --enable-libvorbis --enable-libvpx --enable-libx264 --enable-libx265 --enable-libvmaf --enable-version3 --enable-nonfree\n",
      "  libavutil      57. 24.101 / 57. 24.101\n",
      "  libavcodec     59. 26.100 / 59. 26.100\n",
      "  libavformat    59. 22.100 / 59. 22.100\n",
      "  libavdevice    59.  6.100 / 59.  6.100\n",
      "  libavfilter     8. 33.100 /  8. 33.100\n",
      "  libswscale      6.  6.100 /  6.  6.100\n",
      "  libswresample   4.  6.100 /  4.  6.100\n",
      "  libpostproc    56.  5.100 / 56.  5.100\n",
      "Input #0, yuv4mpegpipe, from 'test_vids/srcRAW_SD/rush_field_cuts_SDp.y4m':\n",
      "  Duration: 00:00:19.02, start: 0.000000, bitrate: 62147 kb/s\n",
      "  Stream #0:0: Video: rawvideo (Y42B / 0x42323459), yuv422p(tv, progressive), 480x270, SAR 1:1 DAR 16:9, 29.97 fps, 29.97 tbr, 29.97 tbn\n",
      "Stream mapping:\n",
      "  Stream #0:0 -> #0:0 (rawvideo (native) -> rawvideo (native))\n",
      "Press [q] to stop, [?] for help\n",
      "Output #0, rawvideo, to 'test_vids/tempRAW_refs/scene0000000.yuv':\n",
      "  Metadata:\n",
      "    encoder         : Lavf59.22.100\n",
      "  Stream #0:0: Video: rawvideo (I420 / 0x30323449), yuv420p(tv, progressive), 480x270 [SAR 1:1 DAR 16:9], q=2-31, 46609 kb/s, 29.97 fps, 29.97 tbn\n",
      "    Metadata:\n",
      "      encoder         : Lavc59.26.100 rawvideo\n",
      "frame=  318 fps=0.0 q=-0.0 Lsize=   60370kB time=00:00:10.61 bitrate=46609.4kbits/s speed= 152x    \n",
      "video:60370kB audio:0kB subtitle:0kB other streams:0kB global headers:0kB muxing overhead: 0.000000%\n",
      "ffmpeg version N-106635-g83e1a1de88 Copyright (c) 2000-2022 the FFmpeg developers\n",
      "  built with gcc 9 (Ubuntu 9.4.0-1ubuntu1~20.04.1)\n",
      "  configuration: --prefix=/home/ubuntu/ffmpeg_build --pkg-config-flags=--static --extra-cflags=-I/home/ubuntu/ffmpeg_build/include --extra-ldflags=-L/home/ubuntu/ffmpeg_build/lib --extra-libs='-lpthread -lm' --ld=g++ --bindir=/home/ubuntu/bin --enable-gpl --enable-gnutls --enable-libaom --enable-libass --enable-libfdk-aac --enable-libfreetype --enable-libmp3lame --enable-libopus --enable-libsvtav1 --enable-libdav1d --enable-libvorbis --enable-libvpx --enable-libx264 --enable-libx265 --enable-libvmaf --enable-version3 --enable-nonfree\n",
      "  libavutil      57. 24.101 / 57. 24.101\n",
      "  libavcodec     59. 26.100 / 59. 26.100\n",
      "  libavformat    59. 22.100 / 59. 22.100\n",
      "  libavdevice    59.  6.100 / 59.  6.100\n",
      "  libavfilter     8. 33.100 /  8. 33.100\n",
      "  libswscale      6.  6.100 /  6.  6.100\n",
      "  libswresample   4.  6.100 /  4.  6.100\n",
      "  libpostproc    56.  5.100 / 56.  5.100\n",
      "Input #0, yuv4mpegpipe, from 'test_vids/srcRAW_SD/rush_field_cuts_SDp.y4m':\n",
      "  Duration: 00:00:19.02, start: 0.000000, bitrate: 62147 kb/s\n",
      "  Stream #0:0: Video: rawvideo (Y42B / 0x42323459), yuv422p(tv, progressive), 480x270, SAR 1:1 DAR 16:9, 29.97 fps, 29.97 tbr, 29.97 tbn\n",
      "Stream mapping:\n",
      "  Stream #0:0 -> #0:0 (rawvideo (native) -> rawvideo (native))\n",
      "Press [q] to stop, [?] for help\n",
      "Output #0, rawvideo, to 'test_vids/tempRAW_refs/scene0000001.yuv':\n",
      "  Metadata:\n",
      "    encoder         : Lavf59.22.100\n",
      "  Stream #0:0: Video: rawvideo (I420 / 0x30323449), yuv420p(tv, progressive), 480x270 [SAR 1:1 DAR 16:9], q=2-31, 46609 kb/s, 29.97 fps, 29.97 tbn\n",
      "    Metadata:\n",
      "      encoder         : Lavc59.26.100 rawvideo\n",
      "frame=   60 fps=0.0 q=-0.0 Lsize=   11391kB time=00:00:02.00 bitrate=46609.4kbits/s speed=78.1x    \n",
      "video:11391kB audio:0kB subtitle:0kB other streams:0kB global headers:0kB muxing overhead: 0.000000%\n",
      "ffmpeg version N-106635-g83e1a1de88 Copyright (c) 2000-2022 the FFmpeg developers\n",
      "  built with gcc 9 (Ubuntu 9.4.0-1ubuntu1~20.04.1)\n",
      "  configuration: --prefix=/home/ubuntu/ffmpeg_build --pkg-config-flags=--static --extra-cflags=-I/home/ubuntu/ffmpeg_build/include --extra-ldflags=-L/home/ubuntu/ffmpeg_build/lib --extra-libs='-lpthread -lm' --ld=g++ --bindir=/home/ubuntu/bin --enable-gpl --enable-gnutls --enable-libaom --enable-libass --enable-libfdk-aac --enable-libfreetype --enable-libmp3lame --enable-libopus --enable-libsvtav1 --enable-libdav1d --enable-libvorbis --enable-libvpx --enable-libx264 --enable-libx265 --enable-libvmaf --enable-version3 --enable-nonfree\n",
      "  libavutil      57. 24.101 / 57. 24.101\n",
      "  libavcodec     59. 26.100 / 59. 26.100\n",
      "  libavformat    59. 22.100 / 59. 22.100\n",
      "  libavdevice    59.  6.100 / 59.  6.100\n",
      "  libavfilter     8. 33.100 /  8. 33.100\n",
      "  libswscale      6.  6.100 /  6.  6.100\n",
      "  libswresample   4.  6.100 /  4.  6.100\n",
      "  libpostproc    56.  5.100 / 56.  5.100\n",
      "Input #0, yuv4mpegpipe, from 'test_vids/srcRAW_SD/rush_field_cuts_SDp.y4m':\n",
      "  Duration: 00:00:19.02, start: 0.000000, bitrate: 62147 kb/s\n",
      "  Stream #0:0: Video: rawvideo (Y42B / 0x42323459), yuv422p(tv, progressive), 480x270, SAR 1:1 DAR 16:9, 29.97 fps, 29.97 tbr, 29.97 tbn\n",
      "Stream mapping:\n",
      "  Stream #0:0 -> #0:0 (rawvideo (native) -> rawvideo (native))\n",
      "Press [q] to stop, [?] for help\n",
      "Output #0, rawvideo, to 'test_vids/tempRAW_refs/scene0000002.yuv':\n",
      "  Metadata:\n",
      "    encoder         : Lavf59.22.100\n",
      "  Stream #0:0: Video: rawvideo (I420 / 0x30323449), yuv420p(tv, progressive), 480x270 [SAR 1:1 DAR 16:9], q=2-31, 46609 kb/s, 29.97 fps, 29.97 tbn\n",
      "    Metadata:\n",
      "      encoder         : Lavc59.26.100 rawvideo\n",
      "frame=  102 fps=0.0 q=-0.0 Lsize=   19364kB time=00:00:03.40 bitrate=46609.4kbits/s speed= 111x    \n",
      "video:19364kB audio:0kB subtitle:0kB other streams:0kB global headers:0kB muxing overhead: 0.000000%\n",
      "ffmpeg version N-106635-g83e1a1de88 Copyright (c) 2000-2022 the FFmpeg developers\n",
      "  built with gcc 9 (Ubuntu 9.4.0-1ubuntu1~20.04.1)\n",
      "  configuration: --prefix=/home/ubuntu/ffmpeg_build --pkg-config-flags=--static --extra-cflags=-I/home/ubuntu/ffmpeg_build/include --extra-ldflags=-L/home/ubuntu/ffmpeg_build/lib --extra-libs='-lpthread -lm' --ld=g++ --bindir=/home/ubuntu/bin --enable-gpl --enable-gnutls --enable-libaom --enable-libass --enable-libfdk-aac --enable-libfreetype --enable-libmp3lame --enable-libopus --enable-libsvtav1 --enable-libdav1d --enable-libvorbis --enable-libvpx --enable-libx264 --enable-libx265 --enable-libvmaf --enable-version3 --enable-nonfree\n",
      "  libavutil      57. 24.101 / 57. 24.101\n",
      "  libavcodec     59. 26.100 / 59. 26.100\n",
      "  libavformat    59. 22.100 / 59. 22.100\n",
      "  libavdevice    59.  6.100 / 59.  6.100\n",
      "  libavfilter     8. 33.100 /  8. 33.100\n",
      "  libswscale      6.  6.100 /  6.  6.100\n",
      "  libswresample   4.  6.100 /  4.  6.100\n",
      "  libpostproc    56.  5.100 / 56.  5.100\n",
      "Input #0, yuv4mpegpipe, from 'test_vids/srcRAW_SD/rush_field_cuts_SDp.y4m':\n",
      "  Duration: 00:00:19.02, start: 0.000000, bitrate: 62147 kb/s\n",
      "  Stream #0:0: Video: rawvideo (Y42B / 0x42323459), yuv422p(tv, progressive), 480x270, SAR 1:1 DAR 16:9, 29.97 fps, 29.97 tbr, 29.97 tbn\n",
      "Stream mapping:\n",
      "  Stream #0:0 -> #0:0 (rawvideo (native) -> rawvideo (native))\n",
      "Press [q] to stop, [?] for help\n",
      "Output #0, rawvideo, to 'test_vids/tempRAW_refs/scene0000003.yuv':\n",
      "  Metadata:\n",
      "    encoder         : Lavf59.22.100\n",
      "  Stream #0:0: Video: rawvideo (I420 / 0x30323449), yuv420p(tv, progressive), 480x270 [SAR 1:1 DAR 16:9], q=2-31, 46609 kb/s, 29.97 fps, 29.97 tbn\n",
      "    Metadata:\n",
      "      encoder         : Lavc59.26.100 rawvideo\n",
      "frame=   90 fps=0.0 q=-0.0 Lsize=   17086kB time=00:00:03.00 bitrate=46609.4kbits/s speed= 110x    \n",
      "video:17086kB audio:0kB subtitle:0kB other streams:0kB global headers:0kB muxing overhead: 0.000000%\n"
     ]
    }
   ],
   "source": [
    "struct_points = [] #structure of target points for the json file\n",
    "struct_shots = [] #structure of shots for the json file\n",
    "\n",
    "if source_path.endswith(\".yuv\"):\n",
    "    print(\"yuv input\")\n",
    "elif source_path.endswith(\".y4m\"):\n",
    "    print(\"y4m input\")\n",
    "else:\n",
    "    print(\"Not such an input type\")\n",
    "    sys.exit()\n",
    "\n",
    "num_scenes = shot_change_detection(source_path)\n",
    "    \n",
    "#init values based on the selected output codec\n",
    "if codec == \"avc\":\n",
    "    s_cod = PARAM_AVC\n",
    "    init_res_matrix(PARAM_AVC[\"crfs\"])\n",
    "elif codec == \"hevc\":\n",
    "    s_cod = PARAM_HEVC\n",
    "    init_res_matrix(PARAM_HEVC[\"crfs\"])\n",
    "elif codec == \"vp9\":\n",
    "    s_cod = PARAM_VP9\n",
    "    init_res_matrix(PARAM_VP9[\"crfs\"])\n",
    "else:\n",
    "    print(\"Not such a codec\")\n",
    "    sys.exit()\n",
    "\n",
    "if num_pts > s_cod[\"opr_range\"][1] - s_cod[\"opr_range\"][0]:\n",
    "    print(\"ERROR: too many encodings\")\n",
    "    sys.exit()\n",
    "\n",
    "with open(tm_file, 'r') as f:\n",
    "    o_data = json.load(f)\n",
    "    \n",
    "#add source name and results matrix\n",
    "o_data[\"content\"] = source_name\n",
    "o_data[\"codec\"] = codec\n",
    "o_data[\"width\"] = raw_width\n",
    "o_data[\"height\"] = raw_height\n",
    "o_data[\"fps\"] = raw_fps\n",
    "o_data[\"shots\"][0][\"assessment\"] = str_matrix\n",
    "    \n",
    "#add emplty target points\n",
    "base_point = o_data[\"shots\"][0][\"opt_points\"][0]\n",
    "for t_name in target_list:\n",
    "    for t_val in target_list[t_name]:\n",
    "        base_point[\"metric\"] = t_name\n",
    "        base_point[\"target\"] = t_val\n",
    "        struct_points.append(copy.deepcopy(base_point))\n",
    "o_data[\"shots\"][0][\"opt_points\"] = struct_points\n",
    "    \n",
    "#add empty shots\n",
    "base_shot = o_data[\"shots\"][0]\n",
    "for i in range(0, num_scenes):\n",
    "    base_shot[\"index\"] = i #assign index to shots in json file\n",
    "    struct_shots.append(copy.deepcopy(base_shot))\n",
    "o_data[\"shots\"] = struct_shots\n",
    "\n",
    "with open(rd_file, 'w') as w:\n",
    "    json.dump(o_data, w, separators=(',',': '))\n",
    "    \n",
    "if dist_metric == \"vmaf\":\n",
    "    target_list[\"dist\"] = 100 - np.asarray(target_list[\"dist\"])\n",
    "elif dist_metric == \"psnr\":\n",
    "    print(\"not yet implemented\")\n",
    "    #TODO normalize psnr and set a max\n",
    "    sys.exit()\n",
    "else:\n",
    "    print(\"ERROR - not a target\")\n",
    "    sys.exit()"
   ]
  },
  {
   "cell_type": "markdown",
   "id": "9cd13ccc",
   "metadata": {},
   "source": [
    "## Optimization\n",
    "Find the shot encoded to a certain crf that has the closest quality or rate to the target"
   ]
  },
  {
   "cell_type": "code",
   "execution_count": 4,
   "id": "8a8c9de9",
   "metadata": {},
   "outputs": [],
   "source": [
    "def encode(s,i,c):\n",
    "    add_info = s_cod[\"add_param\"]\n",
    "    lib = s_cod[\"lib\"]\n",
    "    o = DIST_PATH + str(i) + \"/\" + str(c) + \"_\" + codec.upper() + \".\" + s_cod[\"container\"]\n",
    "    enc = f\"ffmpeg -f rawvideo -video_size {raw_width}x{raw_height} -r {raw_fps} \\\n",
    "        -pixel_format yuv420p -i {REF_PATH + s} -c:v {lib} -crf {c} {add_info} {o} -hide_banner -loglevel error\"\n",
    "    subprocess.call(enc, shell=True)\n",
    "    print(\"-encoded= \" + o)\n",
    "    return o\n",
    "\n",
    "def assess(s,o):\n",
    "    c_vmaf = f\"ffmpeg -f rawvideo -r {raw_fps} -video_size {raw_width}x{raw_height} -i {REF_PATH + s} \\\n",
    "            -i {o} -hide_banner -loglevel error\\\n",
    "            -lavfi \\\"[0:v]setpts=PTS-STARTPTS[ref];\\\n",
    "                    [1:v]scale={raw_width}x{raw_height}:flags=bicubic, setpts=PTS-STARTPTS[dist];\\\n",
    "                    [dist][ref]libvmaf=feature=name=psnr:log_path={VMAF_LOGS}:log_fmt=json\\\" \\\n",
    "            -f null -\" #|name=float_ssim|name=float_ms_ssim to compute the other metrics\n",
    "    subprocess.call(c_vmaf, shell=True)\n",
    "\n",
    "#store the quality and rate results for each shot at each encoded crf\n",
    "def store_results(i,c,o):\n",
    "    with open(VMAF_LOGS, 'r') as r: #extract quality and rate values\n",
    "        i_data = json.load(r)\n",
    "    o_data[\"shots\"][i][\"assessment\"][\"crf\"][c] = c\n",
    "    o_data[\"shots\"][i][\"assessment\"][\"dist\"][c] = i_data[\"pooled_metrics\"][\"vmaf\"][\"mean\"]\n",
    "    #o_data[\"shots\"][i][\"assessment\"][\"psnr\"][c] = (6*i_data[\"pooled_metrics\"][\"psnr_y\"][\"mean\"] + \\\n",
    "        #i_data[\"pooled_metrics\"][\"psnr_cb\"][\"mean\"] + i_data[\"pooled_metrics\"][\"psnr_cr\"][\"mean\"])/8\n",
    "    info = f\"ffprobe -v error -select_streams v:0 -show_entries format:stream -print_format json {o}\"\n",
    "    cout = json.loads(subprocess.run(info.split(), stdout=subprocess.PIPE, stderr=subprocess.STDOUT).stdout)\n",
    "    o_data[\"shots\"][i][\"assessment\"][\"rate\"][c] = int(cout[\"format\"][\"bit_rate\"])\n",
    "    o_data[\"shots\"][i][\"duration\"] = float(cout[\"format\"][\"duration\"])\n",
    "\n",
    "#store final results aslo in the json file\n",
    "def save_opt(i, t, opt):\n",
    "    o_data[\"shots\"][i][\"opt_points\"][t][\"crf\"] = int(opt)\n",
    "    with open(rd_file, 'w') as w:\n",
    "        json.dump(o_data, w, separators=(',',': '))\n",
    "\n",
    "#linear interpolation of the target and the weight alpha between sx and dx\n",
    "def interpolate(sx, dx, t):\n",
    "    alpha = (res_matrix[t_name][sx] - t) / (res_matrix[t_name][sx] - res_matrix[t_name][dx])\n",
    "    new_point = round(res_matrix[\"crf\"][sx] - alpha * (res_matrix[\"crf\"][sx] - res_matrix[\"crf\"][dx]))\n",
    "    return new_point\n",
    "\n",
    "#create all encoded points possible combinations and find the closest to the target\n",
    "def combine():\n",
    "    o = []\n",
    "    if t_name == \"dist\":\n",
    "        y_min = math.inf\n",
    "        to_min = \"rate\"\n",
    "        xf, xg, yf, yg = 100, 1, 0, -1\n",
    "    elif t_name == \"rate\":\n",
    "        y_min = 100\n",
    "        to_min = \"dist\"\n",
    "        xf, xg, yf, yg = 0, -1, 100, 1\n",
    "    for comb in itertools.product(*s_crfs): #for each combination\n",
    "        x = y = 0\n",
    "        for i,val in enumerate(comb):\n",
    "            x += (xf-xg*o_data[\"shots\"][i][\"assessment\"][t_name][val]) * o_data[\"shots\"][i][\"duration\"]\n",
    "            y += (yf-yg*o_data[\"shots\"][i][\"assessment\"][to_min][val]) * o_data[\"shots\"][i][\"duration\"]\n",
    "        x = x / duration\n",
    "        y = y / duration\n",
    "        if x < t_val and y < y_min:\n",
    "            y_min = y\n",
    "            o = list(comb)\n",
    "    if not o:\n",
    "        o = list(comb)\n",
    "    return o\n",
    "\n",
    "#slope value between two points\n",
    "def compute_slope(xl,yl,xr,yr):\n",
    "    return -(yl-yr)/(xl-xr)\n",
    "\n",
    "#split an interval (l[0],l[1]) into n values\n",
    "def interval(l,n):\n",
    "    w = (l[1] - l[0]) / (n - 1)\n",
    "    return np.array([round(l[0]+i*w) for i in range(n)])\n",
    "        \n",
    "def as_fit(x, a, b, c): #curve y=1/x\n",
    "    return a / (x + b) + c\n",
    "\n",
    "def check_side(s):\n",
    "    m = -t_ext[\"slope\"]\n",
    "    count = 1\n",
    "    while count > 0:\n",
    "        l0 = [(m*t_pts[\"rate\"][s][s_mins[s]] - t_pts[\"dist\"][s][s_mins[s]])/m,0]\n",
    "        l1 = [0,t_pts[\"dist\"][s][s_mins[s]] - m*t_pts[\"rate\"][s][s_mins[s]]]\n",
    "        count = 0\n",
    "        for i in range(0, len(t_pts[\"dist\"][s])):\n",
    "            py = t_pts[\"dist\"][s][i]\n",
    "            px = t_pts[\"rate\"][s][i]\n",
    "            crss = (l1[0] - l0[0])*(py - l0[1]) - (px - l0[0])*(l1[1] - l0[1])\n",
    "            if crss > 0.1:\n",
    "                s_mins[s] = i\n",
    "                count += 1\n",
    "    return s_mins[s]"
   ]
  },
  {
   "cell_type": "code",
   "execution_count": 5,
   "id": "b6515097",
   "metadata": {},
   "outputs": [
    {
     "name": "stdout",
     "output_type": "stream",
     "text": [
      "-encoded= test_vids/temp_encoded/0/10_AVC.mp4\n",
      "-encoded= test_vids/temp_encoded/0/11_AVC.mp4\n",
      "-encoded= test_vids/temp_encoded/0/12_AVC.mp4\n",
      "-encoded= test_vids/temp_encoded/0/13_AVC.mp4\n",
      "-encoded= test_vids/temp_encoded/0/14_AVC.mp4\n",
      "-encoded= test_vids/temp_encoded/0/15_AVC.mp4\n",
      "-encoded= test_vids/temp_encoded/0/16_AVC.mp4\n",
      "-encoded= test_vids/temp_encoded/0/17_AVC.mp4\n",
      "-encoded= test_vids/temp_encoded/0/18_AVC.mp4\n",
      "-encoded= test_vids/temp_encoded/0/19_AVC.mp4\n",
      "-encoded= test_vids/temp_encoded/0/20_AVC.mp4\n",
      "-encoded= test_vids/temp_encoded/0/21_AVC.mp4\n",
      "-encoded= test_vids/temp_encoded/0/22_AVC.mp4\n",
      "-encoded= test_vids/temp_encoded/0/23_AVC.mp4\n",
      "-encoded= test_vids/temp_encoded/0/24_AVC.mp4\n",
      "-encoded= test_vids/temp_encoded/0/26_AVC.mp4\n",
      "-encoded= test_vids/temp_encoded/0/27_AVC.mp4\n",
      "-encoded= test_vids/temp_encoded/0/28_AVC.mp4\n",
      "-encoded= test_vids/temp_encoded/0/29_AVC.mp4\n",
      "-encoded= test_vids/temp_encoded/0/30_AVC.mp4\n",
      "-encoded= test_vids/temp_encoded/0/31_AVC.mp4\n",
      "-encoded= test_vids/temp_encoded/0/32_AVC.mp4\n",
      "-encoded= test_vids/temp_encoded/0/33_AVC.mp4\n",
      "-encoded= test_vids/temp_encoded/0/34_AVC.mp4\n",
      "-encoded= test_vids/temp_encoded/0/35_AVC.mp4\n",
      "-encoded= test_vids/temp_encoded/0/36_AVC.mp4\n",
      "-encoded= test_vids/temp_encoded/0/37_AVC.mp4\n",
      "-encoded= test_vids/temp_encoded/0/38_AVC.mp4\n",
      "-encoded= test_vids/temp_encoded/0/39_AVC.mp4\n",
      "-encoded= test_vids/temp_encoded/0/40_AVC.mp4\n",
      "-encoded= test_vids/temp_encoded/1/10_AVC.mp4\n",
      "-encoded= test_vids/temp_encoded/1/11_AVC.mp4\n",
      "-encoded= test_vids/temp_encoded/1/12_AVC.mp4\n",
      "-encoded= test_vids/temp_encoded/1/13_AVC.mp4\n",
      "-encoded= test_vids/temp_encoded/1/14_AVC.mp4\n",
      "-encoded= test_vids/temp_encoded/1/15_AVC.mp4\n",
      "-encoded= test_vids/temp_encoded/1/16_AVC.mp4\n",
      "-encoded= test_vids/temp_encoded/1/17_AVC.mp4\n",
      "-encoded= test_vids/temp_encoded/1/18_AVC.mp4\n",
      "-encoded= test_vids/temp_encoded/1/19_AVC.mp4\n",
      "-encoded= test_vids/temp_encoded/1/20_AVC.mp4\n",
      "-encoded= test_vids/temp_encoded/1/21_AVC.mp4\n",
      "-encoded= test_vids/temp_encoded/1/22_AVC.mp4\n",
      "-encoded= test_vids/temp_encoded/1/23_AVC.mp4\n",
      "-encoded= test_vids/temp_encoded/1/24_AVC.mp4\n",
      "-encoded= test_vids/temp_encoded/1/26_AVC.mp4\n",
      "-encoded= test_vids/temp_encoded/1/27_AVC.mp4\n",
      "-encoded= test_vids/temp_encoded/1/28_AVC.mp4\n",
      "-encoded= test_vids/temp_encoded/1/29_AVC.mp4\n",
      "-encoded= test_vids/temp_encoded/1/30_AVC.mp4\n",
      "-encoded= test_vids/temp_encoded/1/31_AVC.mp4\n",
      "-encoded= test_vids/temp_encoded/1/32_AVC.mp4\n",
      "-encoded= test_vids/temp_encoded/1/33_AVC.mp4\n",
      "-encoded= test_vids/temp_encoded/1/34_AVC.mp4\n",
      "-encoded= test_vids/temp_encoded/1/35_AVC.mp4\n",
      "-encoded= test_vids/temp_encoded/1/36_AVC.mp4\n",
      "-encoded= test_vids/temp_encoded/1/37_AVC.mp4\n",
      "-encoded= test_vids/temp_encoded/1/38_AVC.mp4\n",
      "-encoded= test_vids/temp_encoded/1/39_AVC.mp4\n",
      "-encoded= test_vids/temp_encoded/1/40_AVC.mp4\n",
      "-encoded= test_vids/temp_encoded/2/10_AVC.mp4\n",
      "-encoded= test_vids/temp_encoded/2/11_AVC.mp4\n",
      "-encoded= test_vids/temp_encoded/2/12_AVC.mp4\n",
      "-encoded= test_vids/temp_encoded/2/13_AVC.mp4\n",
      "-encoded= test_vids/temp_encoded/2/14_AVC.mp4\n",
      "-encoded= test_vids/temp_encoded/2/15_AVC.mp4\n",
      "-encoded= test_vids/temp_encoded/2/16_AVC.mp4\n",
      "-encoded= test_vids/temp_encoded/2/17_AVC.mp4\n",
      "-encoded= test_vids/temp_encoded/2/18_AVC.mp4\n",
      "-encoded= test_vids/temp_encoded/2/19_AVC.mp4\n",
      "-encoded= test_vids/temp_encoded/2/20_AVC.mp4\n",
      "-encoded= test_vids/temp_encoded/2/21_AVC.mp4\n",
      "-encoded= test_vids/temp_encoded/2/22_AVC.mp4\n",
      "-encoded= test_vids/temp_encoded/2/23_AVC.mp4\n",
      "-encoded= test_vids/temp_encoded/2/24_AVC.mp4\n",
      "-encoded= test_vids/temp_encoded/2/26_AVC.mp4\n",
      "-encoded= test_vids/temp_encoded/2/27_AVC.mp4\n",
      "-encoded= test_vids/temp_encoded/2/28_AVC.mp4\n",
      "-encoded= test_vids/temp_encoded/2/29_AVC.mp4\n",
      "-encoded= test_vids/temp_encoded/2/30_AVC.mp4\n",
      "-encoded= test_vids/temp_encoded/2/31_AVC.mp4\n",
      "-encoded= test_vids/temp_encoded/2/32_AVC.mp4\n",
      "-encoded= test_vids/temp_encoded/2/33_AVC.mp4\n",
      "-encoded= test_vids/temp_encoded/2/34_AVC.mp4\n",
      "-encoded= test_vids/temp_encoded/2/35_AVC.mp4\n",
      "-encoded= test_vids/temp_encoded/2/36_AVC.mp4\n",
      "-encoded= test_vids/temp_encoded/2/37_AVC.mp4\n",
      "-encoded= test_vids/temp_encoded/2/38_AVC.mp4\n",
      "-encoded= test_vids/temp_encoded/2/39_AVC.mp4\n",
      "-encoded= test_vids/temp_encoded/2/40_AVC.mp4\n",
      "-encoded= test_vids/temp_encoded/3/10_AVC.mp4\n",
      "-encoded= test_vids/temp_encoded/3/11_AVC.mp4\n",
      "-encoded= test_vids/temp_encoded/3/12_AVC.mp4\n",
      "-encoded= test_vids/temp_encoded/3/13_AVC.mp4\n",
      "-encoded= test_vids/temp_encoded/3/14_AVC.mp4\n",
      "-encoded= test_vids/temp_encoded/3/15_AVC.mp4\n",
      "-encoded= test_vids/temp_encoded/3/16_AVC.mp4\n",
      "-encoded= test_vids/temp_encoded/3/17_AVC.mp4\n",
      "-encoded= test_vids/temp_encoded/3/18_AVC.mp4\n",
      "-encoded= test_vids/temp_encoded/3/19_AVC.mp4\n",
      "-encoded= test_vids/temp_encoded/3/20_AVC.mp4\n",
      "-encoded= test_vids/temp_encoded/3/21_AVC.mp4\n",
      "-encoded= test_vids/temp_encoded/3/22_AVC.mp4\n",
      "-encoded= test_vids/temp_encoded/3/23_AVC.mp4\n",
      "-encoded= test_vids/temp_encoded/3/24_AVC.mp4\n",
      "-encoded= test_vids/temp_encoded/3/26_AVC.mp4\n",
      "-encoded= test_vids/temp_encoded/3/27_AVC.mp4\n",
      "-encoded= test_vids/temp_encoded/3/28_AVC.mp4\n",
      "-encoded= test_vids/temp_encoded/3/29_AVC.mp4\n",
      "-encoded= test_vids/temp_encoded/3/30_AVC.mp4\n",
      "-encoded= test_vids/temp_encoded/3/31_AVC.mp4\n",
      "-encoded= test_vids/temp_encoded/3/32_AVC.mp4\n",
      "-encoded= test_vids/temp_encoded/3/33_AVC.mp4\n",
      "-encoded= test_vids/temp_encoded/3/34_AVC.mp4\n",
      "-encoded= test_vids/temp_encoded/3/35_AVC.mp4\n",
      "-encoded= test_vids/temp_encoded/3/36_AVC.mp4\n",
      "-encoded= test_vids/temp_encoded/3/37_AVC.mp4\n",
      "-encoded= test_vids/temp_encoded/3/38_AVC.mp4\n",
      "-encoded= test_vids/temp_encoded/3/39_AVC.mp4\n",
      "-encoded= test_vids/temp_encoded/3/40_AVC.mp4\n",
      "--out_crfs= [27, 28, 24, 23]\n",
      "--out_crfs= [31, 34, 29, 29]\n"
     ]
    }
   ],
   "source": [
    "target_index = 0\n",
    "step_index = 0\n",
    "for t_name in target_list:\n",
    "    for t_val in target_list[t_name]:\n",
    "        \n",
    "        if opt_tech == \"bf\": #brute force approach\n",
    "            shot_index = 0\n",
    "            if target_index == 0:\n",
    "                npts = interval(s_cod[\"opr_range\"], num_pts).tolist()\n",
    "                s_crfs = np.zeros((num_scenes, len(npts)), dtype=int) #init structure\n",
    "                for shot in sorted(os.listdir(REF_PATH)): #for each shot\n",
    "                    for current_crf in npts:\n",
    "                        out = encode(shot, shot_index, current_crf) #encoding\n",
    "                        assess(shot, out) #quality assessment\n",
    "                        store_results(shot_index, current_crf, out)\n",
    "                    s_crfs[shot_index] = [c for c in o_data[\"shots\"][shot_index][\"assessment\"][\"crf\"] if c != 0] #take only encoded shots\n",
    "                    shot_index += 1\n",
    "            opt_crfs = combine() #create all combinations\n",
    "            print(\"--out_crfs= \" + str(opt_crfs))\n",
    "            for i in range(0,num_scenes): #save the opt crf for each shot\n",
    "                save_opt(i, target_index, opt_crfs[i])\n",
    "            \n",
    "        elif opt_tech == \"lg\": #lagrangian optimization\n",
    "            curr_opt = {\"l\": np.zeros(num_scenes), \"r\": np.zeros(num_scenes)} #new optimal inteval bounds\n",
    "            prev_opt = {\"l\": np.ones(num_scenes), \"r\": np.ones(num_scenes)} #previous optimal inteval bounds\n",
    "            s_pts = {\"crf\": np.zeros(num_scenes, dtype=int), \\\n",
    "                        \"rate\": np.zeros(num_scenes), \\\n",
    "                        \"dist\": np.zeros(num_scenes)} #info current optimal combination\n",
    "            t_ext = {\"l\": [], \"r\": [], \"slope\": 0.0} #general slope\n",
    "            \n",
    "            if target_index == 0:\n",
    "                t_pts = {\"crf\": interval(s_cod[\"opr_range\"], num_pts), \\\n",
    "                            \"rate\": np.zeros((num_scenes, num_pts)), \\\n",
    "                            \"dist\": np.zeros((num_scenes, num_pts))} #info encoded shots\n",
    "                s_slopes = np.zeros((num_scenes, num_pts - 1)) #single slopes\n",
    "                shot_index = 0\n",
    "                for shot in sorted(os.listdir(REF_PATH)): #for each shot\n",
    "                    for n_crf, val_crf in enumerate(t_pts[\"crf\"]): #for each init crf\n",
    "                        out = encode(shot, shot_index, val_crf) #encoding\n",
    "                        assess(shot, out) #quality assessment\n",
    "                        store_results(shot_index, int(val_crf), out)\n",
    "                        #store results in t_pts dictionary, weighted by duration\n",
    "                        r = o_data[\"shots\"][shot_index][\"assessment\"][\"rate\"][val_crf]\n",
    "                        d = 100 - o_data[\"shots\"][shot_index][\"assessment\"][\"dist\"][val_crf]\n",
    "                        t_pts[\"rate\"][shot_index][n_crf] = r * o_data[\"shots\"][shot_index][\"duration\"] / duration\n",
    "                        t_pts[\"dist\"][shot_index][n_crf] = d * o_data[\"shots\"][shot_index][\"duration\"] / duration\n",
    "                    for n_crf in range(1,num_pts): #compute and store slope between all close points\n",
    "                        s_slopes[shot_index][n_crf-1] = compute_slope(t_pts[\"rate\"][shot_index][n_crf],\\\n",
    "                                                                      t_pts[\"dist\"][shot_index][n_crf],\\\n",
    "                                                                      t_pts[\"rate\"][shot_index][n_crf-1],\\\n",
    "                                                                      t_pts[\"dist\"][shot_index][n_crf-1])\n",
    "                    shot_index += 1\n",
    "            t_rate = np.einsum('ij->j',t_pts[\"rate\"]) #sum rate results per crf\n",
    "            t_dist = np.einsum('ij->j',t_pts[\"dist\"]) #sum dist results per crf\n",
    "            t_ext[\"l\"] = [t_rate[-1], t_dist[-1]] #last element, crfs 51\n",
    "            t_ext[\"r\"] = [t_rate[0], t_dist[0]] #first element, crfs 0\n",
    "            t_ext[\"slope\"] = compute_slope(t_ext[\"l\"][0],t_ext[\"l\"][1],t_ext[\"r\"][0],t_ext[\"r\"][1])\n",
    "            \n",
    "            #when new solution is the same as the past one\n",
    "            while not (curr_opt[\"r\"] == prev_opt[\"r\"]).all() or not (curr_opt[\"l\"] == prev_opt[\"l\"]).all():\n",
    "                prev_opt = curr_opt.copy() #keep track of the previous optimal combination\n",
    "                diffs = abs(s_slopes - t_ext[\"slope\"]) #difference between all and current slope\n",
    "                s_mins = np.argmin(diffs, axis=1) #find the min difference\n",
    "                for shot in range(0,num_scenes):\n",
    "                    s_curr = check_side(shot)\n",
    "                    s_pts[\"crf\"][shot] = t_pts[\"crf\"][s_curr]\n",
    "                    s_pts[\"rate\"][shot] = t_pts[\"rate\"][shot][s_curr]\n",
    "                    s_pts[\"dist\"][shot] = t_pts[\"dist\"][shot][s_curr]\n",
    "                t_rate = np.einsum('i->',s_pts[\"rate\"]) #sum rate results per crf\n",
    "                t_dist = np.einsum('i->',s_pts[\"dist\"]) #sum dist results per crf\n",
    "                if np.einsum('i->',s_pts[t_name]) > t_val: #if current opt go beyond the target\n",
    "                    if t_name == \"dist\":\n",
    "                        t_ext[\"l\"] = [t_rate, t_dist] #new general point\n",
    "                        curr_opt[\"l\"] = s_pts[\"crf\"].copy()\n",
    "                    elif t_name == \"rate\":\n",
    "                        t_ext[\"r\"] = [t_rate, t_dist]\n",
    "                        curr_opt[\"r\"] = s_pts[\"crf\"].copy()\n",
    "                else:\n",
    "                    if t_name == \"dist\":\n",
    "                        t_ext[\"r\"] = [t_rate, t_dist] #new general point\n",
    "                        curr_opt[\"r\"] = s_pts[\"crf\"].copy()\n",
    "                    elif t_name == \"rate\":\n",
    "                        t_ext[\"l\"] = [t_rate, t_dist]\n",
    "                        curr_opt[\"l\"] = s_pts[\"crf\"].copy()\n",
    "                t_ext[\"slope\"] = compute_slope(t_ext[\"l\"][0],t_ext[\"l\"][1],t_ext[\"r\"][0],t_ext[\"r\"][1])\n",
    "                step_index += 1\n",
    "                \n",
    "            if t_name == \"dist\":\n",
    "                print(\"--out_crfs= \" + str(curr_opt[\"r\"]))\n",
    "                for i in range(0,num_scenes): #save the opt crf for each shot\n",
    "                    save_opt(i, target_index, curr_opt[\"r\"][i])\n",
    "            elif t_name == \"rate\":\n",
    "                print(\"--out_crfs= \" + str(curr_opt[\"l\"]))\n",
    "                for i in range(0,num_scenes):\n",
    "                    save_opt(i, target_index, curr_opt[\"l\"][i])\n",
    "        \n",
    "        \n",
    "        elif opt_tech == \"cf\": #curve fitting\n",
    "            num_init_pts = 5 #more for more precision\n",
    "            init_pts = {\"crf\": interval(s_cod[\"opr_range\"], num_init_pts), \\\n",
    "                        \"rate\": np.zeros((num_init_pts, num_scenes)), \\\n",
    "                        \"dist\": np.zeros((num_init_pts, num_scenes))} #info first encoded shots\n",
    "            shot_index = 0\n",
    "            for shot in sorted(os.listdir(REF_PATH)): #for each shot\n",
    "                for i, current_crf in enumerate(init_pts[\"crf\"]): #for each init crf\n",
    "                    out = encode(shot, shot_index, current_crf) #encoding\n",
    "                    assess(shot, out) #quality assessment\n",
    "                    store_results(shot_index, current_crf, out)\n",
    "                    #store results in the dictionary, weighted by duration\n",
    "                    r = o_data[\"shots\"][shot_index][\"assessment\"][\"rate\"][current_crf]\n",
    "                    d = 100 - o_data[\"shots\"][shot_index][\"assessment\"][\"vmaf\"][current_crf]\n",
    "                    init_pts[\"rate\"][i][shot_index] = r * o_data[\"shots\"][shot_index][\"duration\"] / duration\n",
    "                    init_pts[\"dist\"][i][shot_index] = d * o_data[\"shots\"][shot_index][\"duration\"] / duration\n",
    "                shot_index += 1\n",
    "            #sum results per crf number and find the starting interval\n",
    "            init_pts[\"rate\"] = np.einsum('ij->i',init_pts[\"rate\"])\n",
    "            init_pts[\"dist\"] = np.einsum('ij->i',init_pts[\"dist\"])\n",
    "            t_ext = {\"l\": [init_pts[\"rate\"][b-1], init_pts[\"dist\"][b-1]], \\\n",
    "                     \"r\": [init_pts[\"rate\"][b], init_pts[\"dist\"][b]], \"slope\": 0.0}\n",
    "            t_ext[\"slope\"] = compute_slope(t_ext[\"l\"][0],t_ext[\"l\"][1],t_ext[\"r\"][0],t_ext[\"r\"][1])\n",
    "            \n",
    "            while point_index == 0:\n",
    "                shot_index = 0\n",
    "                #if shot_index == 0: #CHANGE for each shot\n",
    "                for shot in sorted(os.listdir(REF_PATH)):\n",
    "                    rates = [x for x in o_data[\"shots\"][shot_index][\"assessment\"][\"rate\"] if x != 0]\n",
    "                    dists = np.asarray([y for y in o_data[\"shots\"][shot_index][\"assessment\"][\"dist\"] if y != 0])\n",
    "                    par, cov = curve_fit(eq_fit, rates, dists)\n",
    "                    num_samples = (max(rates) - min(rates)) / 51 #to change\n",
    "                    xnew = np.arange(min(rates), max(rates)+num_samples, num_samples)\n",
    "                    fun_curve = eq_fit(xnew, *par)\n",
    "                    pl.plot(rates, dists, 'bo')\n",
    "                    pl.plot(xnew, fun_curve, 'r')\n",
    "                    pl.grid(True)\n",
    "                    pl.figure()\n",
    "                    shot_index += 1\n",
    "                point_index = 1\n",
    "                \n",
    "        else:\n",
    "            print(\"ERROR - not an opt method\")\n",
    "            sys.exit()\n",
    "        target_index += 1"
   ]
  },
  {
   "cell_type": "markdown",
   "id": "c40772a7",
   "metadata": {},
   "source": [
    "## Mux opt video\n",
    "Muxing of the all single optimal encoded shots"
   ]
  },
  {
   "cell_type": "code",
   "execution_count": 6,
   "id": "da25b795",
   "metadata": {},
   "outputs": [],
   "source": [
    "def mux(t_i, t_name, t_val):\n",
    "    file_list = \"\" #list of encoded vids to be stored in OUT_LIST\n",
    "    with open(rd_file, 'r') as f:\n",
    "        o_data = json.load(f)\n",
    "    for shot in range(0,num_scenes):\n",
    "        opt_crf = o_data[\"shots\"][shot][\"opt_points\"][t_i][\"crf\"]\n",
    "        file_list = file_list + \"file '\" + DIST_PATH + str(shot) + \"/\" \\\n",
    "        + str(opt_crf) + \"_\" + codec.upper() + \".\" + s_cod[\"container\"] + \"' \\n\"\n",
    "    with open(OUT_LIST, 'w') as w:\n",
    "        w.write(file_list)\n",
    "    o = OUT_PATH+source_name[:9] + \"_\" + t_name + str(t_val) + opt_tech +\\\n",
    "        \"_\" + codec.upper() + \".\" + s_cod[\"container\"]\n",
    "    mux = f\"ffmpeg -f concat -i {OUT_LIST} -c copy {o}\"\n",
    "    subprocess.call(mux, shell=True)"
   ]
  },
  {
   "cell_type": "code",
   "execution_count": 7,
   "id": "e978545d",
   "metadata": {
    "scrolled": true
   },
   "outputs": [
    {
     "name": "stderr",
     "output_type": "stream",
     "text": [
      "ffmpeg version N-106635-g83e1a1de88 Copyright (c) 2000-2022 the FFmpeg developers\n",
      "  built with gcc 9 (Ubuntu 9.4.0-1ubuntu1~20.04.1)\n",
      "  configuration: --prefix=/home/ubuntu/ffmpeg_build --pkg-config-flags=--static --extra-cflags=-I/home/ubuntu/ffmpeg_build/include --extra-ldflags=-L/home/ubuntu/ffmpeg_build/lib --extra-libs='-lpthread -lm' --ld=g++ --bindir=/home/ubuntu/bin --enable-gpl --enable-gnutls --enable-libaom --enable-libass --enable-libfdk-aac --enable-libfreetype --enable-libmp3lame --enable-libopus --enable-libsvtav1 --enable-libdav1d --enable-libvorbis --enable-libvpx --enable-libx264 --enable-libx265 --enable-libvmaf --enable-version3 --enable-nonfree\n",
      "  libavutil      57. 24.101 / 57. 24.101\n",
      "  libavcodec     59. 26.100 / 59. 26.100\n",
      "  libavformat    59. 22.100 / 59. 22.100\n",
      "  libavdevice    59.  6.100 / 59.  6.100\n",
      "  libavfilter     8. 33.100 /  8. 33.100\n",
      "  libswscale      6.  6.100 /  6.  6.100\n",
      "  libswresample   4.  6.100 /  4.  6.100\n",
      "  libpostproc    56.  5.100 / 56.  5.100\n",
      "[mov,mp4,m4a,3gp,3g2,mj2 @ 0x5639246073c0] Auto-inserting h264_mp4toannexb bitstream filter\n",
      "Input #0, concat, from 'shot_list.txt':\n",
      "  Duration: N/A, start: 0.000000, bitrate: 933 kb/s\n",
      "  Stream #0:0(und): Video: h264 (High) (avc1 / 0x31637661), yuv420p(progressive), 480x270, 933 kb/s, 29.97 fps, 29.97 tbr, 11988 tbn\n",
      "    Metadata:\n",
      "      handler_name    : VideoHandler\n",
      "      vendor_id       : [0][0][0][0]\n",
      "File 'test_vids/OPT_vids/rush_fiel_vmaf89bf_AVC.mp4' already exists. Overwrite? [y/N] Not overwriting - exiting\n",
      "ffmpeg version N-106635-g83e1a1de88 Copyright (c) 2000-2022 the FFmpeg developers\n",
      "  built with gcc 9 (Ubuntu 9.4.0-1ubuntu1~20.04.1)\n",
      "  configuration: --prefix=/home/ubuntu/ffmpeg_build --pkg-config-flags=--static --extra-cflags=-I/home/ubuntu/ffmpeg_build/include --extra-ldflags=-L/home/ubuntu/ffmpeg_build/lib --extra-libs='-lpthread -lm' --ld=g++ --bindir=/home/ubuntu/bin --enable-gpl --enable-gnutls --enable-libaom --enable-libass --enable-libfdk-aac --enable-libfreetype --enable-libmp3lame --enable-libopus --enable-libsvtav1 --enable-libdav1d --enable-libvorbis --enable-libvpx --enable-libx264 --enable-libx265 --enable-libvmaf --enable-version3 --enable-nonfree\n",
      "  libavutil      57. 24.101 / 57. 24.101\n",
      "  libavcodec     59. 26.100 / 59. 26.100\n",
      "  libavformat    59. 22.100 / 59. 22.100\n",
      "  libavdevice    59.  6.100 / 59.  6.100\n",
      "  libavfilter     8. 33.100 /  8. 33.100\n",
      "  libswscale      6.  6.100 /  6.  6.100\n",
      "  libswresample   4.  6.100 /  4.  6.100\n",
      "  libpostproc    56.  5.100 / 56.  5.100\n",
      "[mov,mp4,m4a,3gp,3g2,mj2 @ 0x5575fd5ef3c0] Auto-inserting h264_mp4toannexb bitstream filter\n",
      "Input #0, concat, from 'shot_list.txt':\n",
      "  Duration: N/A, start: 0.000000, bitrate: 490 kb/s\n",
      "  Stream #0:0(und): Video: h264 (High) (avc1 / 0x31637661), yuv420p(progressive), 480x270, 490 kb/s, 29.97 fps, 29.97 tbr, 11988 tbn\n",
      "    Metadata:\n",
      "      handler_name    : VideoHandler\n",
      "      vendor_id       : [0][0][0][0]\n",
      "File 'test_vids/OPT_vids/rush_fiel_rate500000bf_AVC.mp4' already exists. Overwrite? [y/N] Not overwriting - exiting\n"
     ]
    }
   ],
   "source": [
    "target_index = 0\n",
    "if dist_metric == \"vmaf\":\n",
    "    target_list[\"dist\"] = 100 - np.asarray(target_list[\"dist\"])\n",
    "for t_name in target_list:\n",
    "    for t_val in target_list[t_name]:\n",
    "        if t_name == \"dist\":\n",
    "            t_name = dist_metric\n",
    "        mux(target_index, t_name, t_val)\n",
    "        target_index += 1"
   ]
  },
  {
   "cell_type": "code",
   "execution_count": null,
   "id": "d25fd45d",
   "metadata": {},
   "outputs": [],
   "source": []
  }
 ],
 "metadata": {
  "kernelspec": {
   "display_name": "Python 3 (ipykernel)",
   "language": "python",
   "name": "python3"
  },
  "language_info": {
   "codemirror_mode": {
    "name": "ipython",
    "version": 3
   },
   "file_extension": ".py",
   "mimetype": "text/x-python",
   "name": "python",
   "nbconvert_exporter": "python",
   "pygments_lexer": "ipython3",
   "version": "3.8.10"
  }
 },
 "nbformat": 4,
 "nbformat_minor": 5
}
